<svg xmlns="http://www.w3.org/2000/svg" xmlns:xlink="http://www.w3.org/1999/xlink" width="500" zoomAndPan="magnify" viewBox="0 0 375 374.999991" height="500" preserveAspectRatio="xMidYMid meet" version="1.0"><defs><g/><clipPath id="0fef2b01f0"><path d="M 193.410156 119.675781 L 204.824219 119.675781 L 204.824219 131.089844 L 193.410156 131.089844 Z M 193.410156 119.675781 " clip-rule="nonzero"/></clipPath><clipPath id="dc45613c93"><path d="M 199.117188 119.675781 C 202.269531 119.675781 204.824219 122.230469 204.824219 125.382812 C 204.824219 128.535156 202.269531 131.089844 199.117188 131.089844 C 195.964844 131.089844 193.410156 128.535156 193.410156 125.382812 C 193.410156 122.230469 195.964844 119.675781 199.117188 119.675781 L 199.117188 121.503906 C 196.972656 121.503906 195.234375 123.242188 195.234375 125.382812 C 195.234375 127.527344 196.972656 129.265625 199.117188 129.265625 C 201.257812 129.265625 202.996094 127.527344 202.996094 125.382812 C 202.996094 123.242188 201.257812 121.503906 199.117188 121.503906 Z M 199.117188 119.675781 " clip-rule="nonzero"/></clipPath><clipPath id="03fb3edb2d"><path d="M 194.390625 119.675781 L 205 119.675781 L 205 131.625 L 194.390625 131.625 Z M 194.390625 119.675781 " clip-rule="nonzero"/></clipPath><clipPath id="11b8f0489d"><path d="M 200.203125 119.78125 C 202.667969 120.257812 204.53125 122.292969 204.792969 124.792969 C 205.050781 127.292969 203.648438 129.667969 201.332031 130.640625 C 199.019531 131.617188 196.335938 130.964844 194.730469 129.035156 C 194.40625 128.648438 194.460938 128.070312 194.847656 127.75 C 195.234375 127.425781 195.8125 127.480469 196.132812 127.867188 C 197.226562 129.179688 199.050781 129.625 200.625 128.960938 C 202.199219 128.296875 203.152344 126.679688 202.976562 124.980469 C 202.800781 123.28125 201.53125 121.898438 199.855469 121.574219 C 199.535156 121.511719 199.273438 121.285156 199.167969 120.976562 C 199.058594 120.667969 199.125 120.324219 199.339844 120.078125 C 199.554688 119.832031 199.882812 119.71875 200.203125 119.78125 Z M 200.203125 119.78125 " clip-rule="nonzero"/></clipPath><clipPath id="c7239c5274"><path d="M 167.175781 106.21875 L 178.425781 106.21875 L 178.425781 121.96875 L 167.175781 121.96875 Z M 167.175781 106.21875 " clip-rule="nonzero"/></clipPath><clipPath id="4bb8929931"><path d="M 207.726562 119.675781 L 219.140625 119.675781 L 219.140625 131.089844 L 207.726562 131.089844 Z M 207.726562 119.675781 " clip-rule="nonzero"/></clipPath><clipPath id="600f9c11c9"><path d="M 213.433594 119.675781 C 216.585938 119.675781 219.140625 122.230469 219.140625 125.382812 C 219.140625 128.535156 216.585938 131.089844 213.433594 131.089844 C 210.28125 131.089844 207.726562 128.535156 207.726562 125.382812 C 207.726562 122.230469 210.28125 119.675781 213.433594 119.675781 L 213.433594 121.503906 C 211.289062 121.503906 209.550781 123.242188 209.550781 125.382812 C 209.550781 127.527344 211.289062 129.265625 213.433594 129.265625 C 215.574219 129.265625 217.3125 127.527344 217.3125 125.382812 C 217.3125 123.242188 215.574219 121.503906 213.433594 121.503906 Z M 213.433594 119.675781 " clip-rule="nonzero"/></clipPath><clipPath id="9832473a1b"><path d="M 208.707031 119.675781 L 219.40625 119.675781 L 219.40625 131.625 L 208.707031 131.625 Z M 208.707031 119.675781 " clip-rule="nonzero"/></clipPath><clipPath id="63e0c14870"><path d="M 214.519531 119.78125 C 216.984375 120.257812 218.847656 122.292969 219.109375 124.792969 C 219.367188 127.292969 217.964844 129.667969 215.648438 130.640625 C 213.335938 131.617188 210.652344 130.964844 209.046875 129.035156 C 208.722656 128.648438 208.777344 128.070312 209.164062 127.75 C 209.550781 127.425781 210.128906 127.480469 210.449219 127.867188 C 211.542969 129.179688 213.367188 129.625 214.941406 128.960938 C 216.515625 128.296875 217.46875 126.679688 217.292969 124.980469 C 217.117188 123.28125 215.847656 121.898438 214.171875 121.574219 C 213.851562 121.511719 213.589844 121.285156 213.484375 120.976562 C 213.375 120.667969 213.441406 120.324219 213.65625 120.078125 C 213.871094 119.832031 214.199219 119.71875 214.519531 119.78125 Z M 214.519531 119.78125 " clip-rule="nonzero"/></clipPath></defs><rect x="-37.5" width="450" fill="#ffffff" y="-37.499999" height="449.999989" fill-opacity="1"/><rect x="-37.5" width="450" fill="#ffffff" y="-37.499999" height="449.999989" fill-opacity="1"/><g fill="#ffbd59" fill-opacity="1"><g transform="translate(117.257871, 132.14202)"><g><path d="M 1.707031 -15.015625 C 1.683594 -14.625 1.707031 -13.722656 1.730469 -12.527344 C 1.753906 -11.335938 1.78125 -9.824219 1.851562 -8.335938 C 1.949219 -6.847656 2 -5.363281 2.070312 -4.191406 C 2.144531 -2.996094 2.195312 -2.097656 2.265625 -1.78125 C 2.363281 -1.121094 2.851562 -0.78125 3.386719 -0.78125 C 3.875 -0.78125 4.4375 -1.144531 4.558594 -1.828125 C 4.535156 -2 4.460938 -3.191406 4.4375 -4.386719 C 4.339844 -5.558594 4.339844 -6.679688 4.339844 -6.777344 C 5.09375 -6.75 6.191406 -6.777344 7.214844 -6.800781 C 8.261719 -6.824219 9.261719 -6.898438 9.894531 -6.921875 C 10.578125 -6.945312 11.042969 -7.457031 11.042969 -8.019531 C 11.066406 -8.507812 10.628906 -9.066406 9.992188 -9.066406 C 9.382812 -9.089844 8.433594 -9.140625 7.410156 -9.140625 C 6.386719 -9.140625 5.242188 -9.164062 4.289062 -9.164062 L 4.289062 -9.796875 C 4.265625 -10.210938 4.265625 -10.675781 4.265625 -11.1875 C 4.242188 -11.675781 4.242188 -12.136719 4.242188 -12.578125 L 4.242188 -13.355469 C 4.242188 -14.039062 4.265625 -14.476562 4.386719 -14.699219 C 4.535156 -14.894531 4.777344 -14.964844 5.386719 -14.964844 C 6.070312 -14.964844 6.777344 -14.917969 7.484375 -14.917969 C 8.164062 -14.894531 8.921875 -14.867188 9.699219 -14.867188 C 10.40625 -14.867188 10.96875 -15.355469 10.945312 -15.917969 C 10.945312 -16.5 10.359375 -17.109375 9.554688 -17.109375 C 8.824219 -17.109375 7.800781 -17.160156 6.75 -17.160156 C 5.628906 -17.183594 4.535156 -17.207031 3.679688 -17.207031 C 2.65625 -17.207031 1.609375 -16.550781 1.707031 -15.015625 Z M 1.707031 -15.015625 "/></g></g></g><g fill="#ffbd59" fill-opacity="1"><g transform="translate(131.562448, 132.14202)"><g><path d="M 3.316406 -7.167969 C 3.21875 -7.75 3.070312 -8.847656 3.460938 -9.554688 C 3.753906 -10.238281 4.558594 -10.53125 5.386719 -10.601562 C 6.582031 -10.675781 7.457031 -10.457031 8.09375 -9.894531 C 8.726562 -9.335938 8.921875 -8.652344 8.605469 -7.824219 C 8.410156 -7.410156 7.726562 -7.167969 6.777344 -7.070312 C 5.777344 -6.972656 4.558594 -6.996094 3.316406 -7.167969 Z M 10.480469 -6.070312 C 11.066406 -6.824219 11.210938 -8.921875 10.382812 -10.457031 C 9.652344 -11.820312 7.898438 -12.820312 5.339844 -12.722656 C 3.242188 -12.699219 1.925781 -11.917969 1.292969 -10.457031 C 0.976562 -9.675781 0.851562 -8.726562 0.851562 -7.824219 C 0.851562 -6.945312 0.949219 -6.09375 1.121094 -5.507812 C 1.265625 -4.753906 1.632812 -3.535156 2.121094 -2.777344 C 2.632812 -2.023438 3.21875 -1.511719 4.046875 -1.21875 C 4.730469 -0.949219 5.824219 -0.851562 6.847656 -0.878906 C 7.945312 -0.878906 8.96875 -1.023438 9.652344 -1.316406 C 9.96875 -1.535156 10.019531 -2.070312 9.847656 -2.535156 C 9.652344 -2.925781 9.238281 -3.289062 8.703125 -3.167969 C 8.191406 -3.070312 7.507812 -3.046875 6.800781 -3.070312 C 6.070312 -3.070312 5.363281 -3.191406 4.875 -3.414062 C 4.191406 -3.703125 3.875 -4.3125 3.730469 -5.070312 C 5.460938 -4.703125 7.042969 -4.730469 8.238281 -4.949219 C 9.410156 -5.167969 10.261719 -5.582031 10.480469 -6.070312 Z M 10.480469 -6.070312 "/></g></g></g><g fill="#ffbd59" fill-opacity="1"><g transform="translate(145.672086, 132.14202)"><g><path d="M 7.996094 -12.648438 C 6.972656 -12.941406 4.949219 -13.015625 3.167969 -12.722656 C 2.242188 -12.601562 1.683594 -12.089844 1.363281 -11.40625 C 1.023438 -10.75 0.902344 -10.019531 0.878906 -9.359375 C 0.78125 -8.675781 0.976562 -7.921875 1.390625 -7.238281 C 1.707031 -6.558594 2.265625 -6.019531 2.902344 -5.824219 C 3.703125 -5.53125 4.460938 -5.460938 5.144531 -5.386719 C 5.824219 -5.289062 6.335938 -5.242188 6.628906 -5.070312 C 6.972656 -4.875 7.140625 -4.484375 7.117188 -4.09375 C 7.117188 -3.703125 6.898438 -3.363281 6.582031 -3.265625 C 6.238281 -3.09375 5.605469 -3.070312 4.898438 -3.070312 C 4.265625 -3.09375 3.535156 -3.191406 3.09375 -3.316406 C 2.414062 -3.316406 2.023438 -2.875 2 -2.316406 C 1.925781 -1.804688 2.242188 -1.21875 2.949219 -1.121094 C 4.730469 -0.878906 7.359375 -0.902344 8.359375 -1.535156 C 9.164062 -2.121094 9.507812 -3.265625 9.507812 -4.214844 C 9.507812 -5.167969 9.1875 -6.167969 8.191406 -6.921875 C 7.554688 -7.191406 6.847656 -7.261719 6.140625 -7.359375 C 5.460938 -7.457031 4.800781 -7.507812 4.191406 -7.726562 C 3.679688 -7.898438 3.339844 -8.480469 3.242188 -9.089844 C 3.121094 -9.675781 3.265625 -10.261719 3.800781 -10.457031 C 4.214844 -10.578125 4.996094 -10.652344 5.726562 -10.652344 C 6.410156 -10.652344 7.09375 -10.578125 7.457031 -10.554688 C 8.386719 -10.433594 8.871094 -10.871094 8.96875 -11.429688 C 9.042969 -11.917969 8.703125 -12.554688 7.996094 -12.648438 Z M 7.996094 -12.648438 "/></g></g></g><g fill="#ffbd59" fill-opacity="1"><g transform="translate(158.368415, 132.14202)"><g><path d="M 7.824219 -12.359375 C 7.238281 -12.332031 6.726562 -12.285156 6.238281 -12.285156 C 5.996094 -12.261719 5.777344 -12.261719 5.558594 -12.261719 L 5.019531 -12.261719 L 4.972656 -14.503906 C 4.949219 -15.160156 4.3125 -15.429688 3.703125 -15.40625 C 3.121094 -15.332031 2.558594 -15.015625 2.582031 -14.355469 L 2.65625 -12.308594 L 1.851562 -12.308594 C 1.585938 -12.308594 1.316406 -12.332031 1.023438 -12.359375 C 0.339844 -12.359375 0.292969 -11.820312 0.292969 -11.308594 C 0.292969 -10.917969 0.339844 -10.261719 0.925781 -10.261719 C 1.4375 -10.164062 2 -10.164062 2.582031 -10.164062 C 2.582031 -9.847656 2.632812 -8.96875 2.65625 -8.117188 C 2.730469 -7.261719 2.753906 -6.410156 2.753906 -6.214844 C 2.65625 -5.3125 2.902344 -3.925781 3.316406 -2.875 C 3.535156 -2.121094 4.535156 -1.390625 6.117188 -1.074219 C 6.726562 -0.902344 7.335938 -0.78125 7.945312 -0.78125 C 8.433594 -0.683594 8.824219 -1.074219 8.96875 -1.558594 C 9.140625 -2.046875 8.992188 -2.582031 8.359375 -2.777344 L 6.484375 -3.21875 C 5.972656 -3.316406 5.410156 -3.703125 5.289062 -4.363281 C 5.289062 -4.484375 5.265625 -4.65625 5.265625 -4.875 C 5.242188 -4.996094 5.242188 -5.09375 5.242188 -5.214844 L 5.242188 -5.628906 L 5.09375 -10.066406 C 5.824219 -9.992188 6.996094 -10.117188 7.871094 -10.210938 C 8.457031 -10.238281 8.675781 -10.773438 8.652344 -11.335938 C 8.578125 -11.820312 8.335938 -12.359375 7.824219 -12.359375 Z M 7.824219 -12.359375 "/></g></g></g><g fill="#ffbd59" fill-opacity="1"><g transform="translate(169.919492, 132.14202)"><g><path d="M 4.242188 -11.554688 C 3.972656 -12.234375 3.316406 -12.382812 2.707031 -12.261719 C 2.121094 -12.089844 1.632812 -11.722656 1.753906 -11.261719 C 1.78125 -10.066406 1.851562 -8.289062 1.949219 -6.507812 C 2.023438 -4.753906 2.121094 -2.972656 2.21875 -1.875 C 2.21875 -1.171875 2.777344 -0.804688 3.386719 -0.878906 C 3.972656 -0.902344 4.605469 -1.316406 4.703125 -2.023438 C 4.703125 -3.167969 4.632812 -4.921875 4.535156 -6.75 Z M 2.65625 -17.769531 C 1.753906 -17.769531 1.023438 -16.867188 1.023438 -15.917969 C 1.046875 -15.015625 1.804688 -14.257812 2.707031 -14.257812 C 3.605469 -14.257812 4.484375 -15.015625 4.460938 -15.917969 C 4.460938 -16.378906 4.242188 -16.792969 3.875 -17.183594 C 3.484375 -17.574219 3.070312 -17.769531 2.65625 -17.769531 Z M 2.65625 -17.769531 "/></g></g></g><g fill="#ffbd59" fill-opacity="1"><g transform="translate(177.808234, 132.142401)"><g><path d="M 9.238281 -14.40625 C 9.652344 -13.992188 9.699219 -12.796875 9.457031 -11.722656 C 9.261719 -10.628906 8.800781 -9.554688 8.191406 -9.359375 L 3.851562 -9.066406 C 3.851562 -9.433594 3.753906 -10.601562 3.730469 -11.796875 C 3.65625 -12.992188 3.65625 -14.257812 3.65625 -14.769531 C 4.363281 -14.867188 5.558594 -14.964844 6.679688 -14.894531 C 7.777344 -14.867188 8.75 -14.699219 9.238281 -14.40625 Z M 8.871094 -7.261719 C 10.089844 -6.972656 10.699219 -6.09375 10.726562 -5.242188 C 10.773438 -4.363281 10.238281 -3.484375 9.238281 -3.121094 C 8.289062 -2.851562 4.996094 -3.023438 4.144531 -3.023438 C 3.949219 -4.289062 3.898438 -5.339844 3.898438 -7.070312 C 4.386719 -7.238281 5.339844 -7.335938 6.238281 -7.359375 C 7.191406 -7.386719 8.140625 -7.359375 8.871094 -7.261719 Z M 10.675781 -8.554688 C 11.089844 -9.042969 11.503906 -9.992188 11.773438 -10.96875 C 11.992188 -11.96875 12.113281 -13.015625 11.820312 -13.773438 C 11.457031 -15.234375 10.457031 -16.527344 8.871094 -16.816406 C 8.433594 -16.890625 7.261719 -16.964844 6.117188 -16.988281 C 4.972656 -17.011719 3.851562 -16.988281 3.363281 -16.867188 C 3.046875 -16.84375 2.609375 -16.792969 2.21875 -16.527344 C 1.804688 -16.257812 1.535156 -15.820312 1.558594 -15.0625 C 1.535156 -12.554688 1.558594 -10.238281 1.65625 -8.117188 C 1.730469 -5.996094 1.804688 -4.265625 1.925781 -2.925781 C 1.949219 -2.023438 2.4375 -1.046875 3.730469 -1.023438 C 5.265625 -0.902344 8.433594 -0.753906 9.992188 -1.21875 C 11.457031 -1.609375 12.308594 -2.925781 12.601562 -3.972656 C 12.820312 -4.484375 12.871094 -5.3125 12.773438 -5.972656 C 12.578125 -6.824219 12.210938 -7.359375 11.796875 -7.75 C 11.359375 -8.164062 10.917969 -8.386719 10.675781 -8.554688 Z M 10.675781 -8.554688 "/></g></g></g><g fill="#ffbd59" fill-opacity="1"><g transform="translate(193.993769, 132.142401)"><g/></g></g><g fill="#ffbd59" fill-opacity="1"><g transform="translate(200.963481, 132.142401)"><g/></g></g><g fill="#ffbd59" fill-opacity="1"><g transform="translate(207.933193, 132.142401)"><g/></g></g><g fill="#ffbd59" fill-opacity="1"><g transform="translate(214.902905, 132.142401)"><g/></g></g><g fill="#ffbd59" fill-opacity="1"><g transform="translate(221.873797, 132.142401)"><g><path d="M 5.628906 -7.214844 C 6.019531 -7.53125 6.898438 -8.261719 7.898438 -9.042969 C 8.921875 -9.847656 9.96875 -10.699219 10.675781 -11.308594 C 11.089844 -11.722656 10.847656 -12.601562 10.433594 -12.96875 C 10.042969 -13.382812 9.261719 -13.601562 8.871094 -13.015625 L 6.484375 -11.042969 C 5.53125 -10.285156 4.65625 -9.578125 4.242188 -9.214844 C 4.214844 -9.601562 4.214844 -10.066406 4.214844 -10.578125 L 4.214844 -12.164062 C 4.214844 -13.210938 4.242188 -14.308594 4.242188 -15.113281 C 4.242188 -15.792969 3.605469 -16.183594 2.972656 -16.207031 C 2.363281 -16.28125 1.707031 -15.988281 1.707031 -15.308594 C 1.609375 -12.578125 1.632812 -10.457031 1.707031 -8.410156 C 1.78125 -6.335938 1.925781 -4.289062 2.023438 -1.828125 C 2.023438 -1.074219 2.609375 -0.683594 3.289062 -0.609375 C 3.898438 -0.535156 4.558594 -0.804688 4.558594 -1.460938 L 4.339844 -5.214844 C 5.949219 -3.972656 7.777344 -2.460938 8.800781 -1.21875 C 9.382812 -0.730469 9.96875 -0.925781 10.382812 -1.316406 C 10.796875 -1.683594 10.96875 -2.265625 10.726562 -2.632812 C 10.335938 -3.046875 9.507812 -3.925781 8.554688 -4.824219 C 7.554688 -5.726562 6.484375 -6.628906 5.628906 -7.214844 Z M 5.628906 -7.214844 "/></g></g></g><g clip-path="url(#0fef2b01f0)"><g clip-path="url(#dc45613c93)"><path fill="#ffe6b2" d="M 193.410156 119.675781 L 204.824219 119.675781 L 204.824219 131.089844 L 193.410156 131.089844 Z M 193.410156 119.675781 " fill-opacity="1" fill-rule="nonzero"/></g></g><g clip-path="url(#03fb3edb2d)"><g clip-path="url(#11b8f0489d)"><path fill="#ffc24a" d="M 193.410156 119.675781 L 204.824219 119.675781 L 204.824219 131.089844 L 193.410156 131.089844 Z M 193.410156 119.675781 " fill-opacity="1" fill-rule="nonzero"/></g></g><g clip-path="url(#c7239c5274)"><path fill="#ffde59" d="M 174.6875 106.21875 C 174.679688 106.25 174.671875 106.28125 174.664062 106.328125 C 174.757812 106.257812 174.808594 106.21875 174.914062 106.347656 C 175.144531 106.609375 175.195312 106.589844 175.21875 106.800781 C 175.234375 106.980469 175.394531 107.144531 175.289062 107.347656 C 175.273438 107.382812 175.339844 107.453125 175.339844 107.503906 C 175.34375 107.734375 175.332031 107.960938 175.335938 108.1875 C 175.339844 108.296875 175.382812 108.40625 175.390625 108.515625 C 175.402344 108.695312 175.355469 108.871094 175.382812 109.054688 C 175.417969 109.289062 175.414062 109.53125 175.417969 109.769531 C 175.421875 110.171875 175.414062 110.574219 175.414062 110.976562 C 175.414062 111.109375 175.457031 111.246094 175.425781 111.371094 C 175.386719 111.519531 175.417969 111.648438 175.449219 111.789062 C 175.484375 111.96875 175.480469 112.148438 175.445312 112.324219 C 175.40625 112.519531 175.484375 112.601562 175.640625 112.679688 C 175.851562 112.785156 176.0625 112.90625 176.265625 113.035156 C 176.449219 113.152344 176.625 113.28125 176.800781 113.410156 C 176.921875 113.5 177.027344 113.617188 177.160156 113.6875 C 177.359375 113.796875 177.578125 113.871094 177.789062 113.96875 C 177.851562 114 177.902344 114.050781 177.992188 114.121094 C 178.09375 114.089844 178.203125 114.183594 178.28125 114.296875 C 178.417969 114.488281 178.394531 114.863281 178.253906 115.019531 C 178.050781 115.246094 177.753906 115.3125 177.527344 115.199219 C 177.429688 115.257812 177.34375 115.316406 177.246094 115.359375 C 176.9375 115.496094 176.667969 115.695312 176.402344 115.90625 C 176.230469 116.039062 176.003906 116.101562 175.800781 116.207031 C 175.683594 116.265625 175.570312 116.339844 175.457031 116.414062 C 175.433594 116.429688 175.421875 116.457031 175.421875 116.484375 C 175.453125 116.660156 175.355469 116.835938 175.433594 117.011719 C 175.4375 117.027344 175.4375 117.042969 175.433594 117.058594 C 175.34375 117.332031 175.460938 117.609375 175.421875 117.886719 C 175.375 118.191406 175.398438 118.507812 175.382812 118.816406 C 175.371094 119.042969 175.367188 119.265625 175.371094 119.492188 C 175.371094 119.761719 175.332031 120.027344 175.324219 120.296875 C 175.3125 120.542969 175.34375 120.789062 175.3125 121.03125 C 175.285156 121.242188 175.339844 121.472656 175.1875 121.664062 C 175.117188 121.753906 175.058594 121.871094 174.964844 121.921875 C 174.878906 121.96875 174.753906 121.953125 174.644531 121.941406 C 174.566406 121.9375 174.441406 121.953125 174.453125 121.800781 C 174.433594 121.800781 174.410156 121.808594 174.394531 121.800781 C 174.335938 121.75 174.25 121.714844 174.222656 121.648438 C 174.089844 121.339844 173.902344 121.09375 173.648438 120.863281 C 173.417969 120.648438 173.261719 120.339844 173.074219 120.070312 C 172.777344 119.628906 172.476562 119.183594 172.183594 118.738281 C 172.089844 118.601562 172.019531 118.449219 171.925781 118.3125 C 171.878906 118.246094 171.808594 118.191406 171.730469 118.109375 L 170.601562 118.671875 C 170.609375 118.65625 170.605469 118.695312 170.585938 118.710938 C 170.507812 118.769531 170.421875 118.820312 170.339844 118.875 C 170.074219 119.0625 169.8125 119.253906 169.542969 119.4375 C 169.386719 119.542969 169.214844 119.625 169.058594 119.734375 C 168.878906 119.859375 168.714844 120.011719 168.53125 120.132812 C 168.375 120.238281 168.207031 120.347656 168.027344 120.382812 C 167.8125 120.429688 167.578125 120.457031 167.375 120.300781 C 167.238281 120.191406 167.183594 119.957031 167.261719 119.808594 C 167.316406 119.699219 167.335938 119.582031 167.359375 119.460938 C 167.390625 119.308594 167.472656 119.160156 167.535156 119.011719 C 167.671875 118.675781 167.816406 118.339844 167.949219 118 C 168.019531 117.816406 168.074219 117.625 168.148438 117.441406 C 168.308594 117.015625 168.453125 116.578125 168.707031 116.191406 C 168.828125 116.007812 168.882812 115.789062 168.984375 115.585938 C 169.113281 115.335938 169.277344 115.121094 169.429688 114.890625 C 169.460938 114.84375 169.527344 114.8125 169.542969 114.761719 C 169.566406 114.683594 169.597656 114.578125 169.566406 114.515625 C 169.453125 114.300781 169.304688 114.101562 169.183594 113.890625 C 169.011719 113.59375 168.851562 113.289062 168.691406 112.984375 C 168.65625 112.914062 168.660156 112.824219 168.628906 112.75 C 168.613281 112.710938 168.558594 112.6875 168.542969 112.648438 C 168.421875 112.355469 168.265625 112.082031 168.183594 111.769531 C 168.089844 111.402344 167.890625 111.066406 167.765625 110.707031 C 167.699219 110.515625 167.695312 110.300781 167.671875 110.089844 C 167.652344 109.921875 167.652344 109.753906 167.734375 109.597656 C 167.886719 109.300781 168.191406 109.148438 168.515625 109.246094 C 168.730469 109.3125 168.929688 109.414062 169.136719 109.503906 C 169.46875 109.648438 169.804688 109.789062 170.136719 109.933594 C 170.1875 109.957031 170.226562 110.011719 170.253906 110.035156 C 170.367188 110.078125 170.476562 110.105469 170.574219 110.15625 C 170.941406 110.363281 171.304688 110.578125 171.667969 110.789062 C 171.6875 110.800781 171.691406 110.835938 171.707031 110.878906 C 171.8125 110.6875 171.976562 110.566406 172.074219 110.382812 C 172.171875 110.191406 172.320312 110.03125 172.4375 109.851562 C 172.554688 109.671875 172.671875 109.488281 172.769531 109.296875 C 172.875 109.09375 172.957031 108.882812 173.054688 108.679688 C 173.144531 108.492188 173.238281 108.308594 173.335938 108.121094 L 173.425781 108.160156 C 173.429688 108.148438 173.4375 108.136719 173.4375 108.125 C 173.433594 108.070312 173.398438 108 173.417969 107.957031 C 173.542969 107.675781 173.652344 107.382812 173.820312 107.128906 C 173.996094 106.851562 174.226562 106.609375 174.445312 106.359375 C 174.5 106.296875 174.585938 106.265625 174.65625 106.21875 Z M 174.539062 113.554688 C 174.546875 113.558594 174.5 113.546875 174.488281 113.515625 C 174.417969 113.363281 174.289062 113.308594 174.140625 113.257812 C 173.960938 113.199219 173.789062 113.105469 173.617188 113.015625 C 173.523438 112.964844 173.4375 112.890625 173.347656 112.835938 C 173.203125 112.742188 173.054688 112.65625 172.90625 112.566406 C 172.875 112.550781 172.847656 112.523438 172.820312 112.519531 C 172.613281 112.476562 172.40625 112.441406 172.199219 112.394531 C 172.160156 112.386719 172.125 112.339844 172.097656 112.316406 L 171.859375 112.335938 C 171.550781 113.019531 171.261719 113.722656 170.832031 114.421875 C 170.964844 114.621094 171.121094 114.859375 171.28125 115.09375 C 171.492188 115.414062 171.714844 115.726562 171.914062 116.050781 C 172.046875 116.261719 172.144531 116.488281 172.265625 116.707031 C 172.289062 116.746094 172.367188 116.796875 172.382812 116.789062 C 172.582031 116.648438 172.839844 116.664062 173.039062 116.519531 C 173.371094 116.28125 173.800781 116.285156 174.148438 116.085938 C 174.277344 116.015625 174.480469 116.007812 174.476562 115.8125 C 174.472656 115.554688 174.507812 115.304688 174.488281 115.046875 C 174.460938 114.671875 174.484375 114.292969 174.484375 113.917969 C 174.484375 113.863281 174.503906 113.8125 174.511719 113.757812 C 174.519531 113.703125 174.527344 113.644531 174.539062 113.554688 Z M 174.507812 107.730469 L 174.472656 107.71875 C 174.441406 107.773438 174.410156 107.828125 174.382812 107.886719 C 174.277344 108.113281 174.175781 108.335938 174.074219 108.5625 C 174 108.71875 173.921875 108.871094 173.851562 109.027344 C 173.8125 109.113281 173.792969 109.210938 173.75 109.300781 C 173.648438 109.5 173.546875 109.703125 173.433594 109.894531 C 173.335938 110.0625 173.222656 110.222656 173.113281 110.382812 C 173.042969 110.484375 172.96875 110.582031 172.910156 110.664062 C 172.886719 110.65625 172.847656 110.632812 172.820312 110.640625 C 172.796875 110.648438 172.78125 110.699219 172.78125 110.734375 C 172.78125 110.777344 172.816406 110.835938 172.800781 110.867188 C 172.734375 110.996094 172.652344 111.117188 172.566406 111.253906 C 173.289062 111.335938 173.84375 111.789062 174.507812 112.089844 Z M 168.539062 118.820312 C 168.578125 118.816406 168.613281 118.824219 168.640625 118.808594 C 168.859375 118.675781 169.074219 118.535156 169.292969 118.40625 C 169.644531 118.199219 170.003906 118 170.359375 117.800781 C 170.601562 117.671875 170.839844 117.535156 171.09375 117.429688 C 171.234375 117.367188 171.269531 117.304688 171.199219 117.171875 C 171.070312 116.933594 170.945312 116.691406 170.8125 116.453125 C 170.730469 116.300781 170.640625 116.15625 170.539062 116.015625 C 170.414062 115.847656 170.269531 115.6875 170.117188 115.496094 C 170.097656 115.578125 170.09375 115.617188 170.078125 115.648438 C 169.941406 115.890625 169.804688 116.132812 169.667969 116.375 C 169.640625 116.433594 169.628906 116.5 169.601562 116.558594 C 169.511719 116.738281 169.421875 116.917969 169.328125 117.101562 C 169.28125 117.191406 169.195312 117.28125 169.191406 117.375 C 169.1875 117.574219 169.089844 117.683594 168.917969 117.761719 C 168.941406 117.8125 168.964844 117.855469 168.992188 117.914062 L 168.875 117.9375 C 168.929688 118.085938 168.859375 118.25 168.761719 118.269531 C 168.6875 118.464844 168.617188 118.632812 168.539062 118.820312 Z M 170.480469 113.15625 C 170.480469 113.089844 170.464844 113.023438 170.484375 112.976562 C 170.582031 112.765625 170.691406 112.558594 170.796875 112.351562 C 170.871094 112.199219 170.949219 112.046875 171.019531 111.894531 C 171.03125 111.867188 171.007812 111.816406 170.984375 111.792969 C 170.917969 111.707031 170.855469 111.617188 170.734375 111.589844 C 170.652344 111.570312 170.582031 111.507812 170.507812 111.460938 C 170.359375 111.378906 170.210938 111.292969 170.058594 111.210938 C 169.84375 111.09375 169.628906 110.976562 169.410156 110.875 C 169.257812 110.800781 169.101562 110.746094 168.941406 110.683594 L 168.910156 110.738281 C 168.9375 110.800781 168.964844 110.867188 168.992188 110.929688 C 169.066406 111.078125 169.148438 111.222656 169.214844 111.375 C 169.242188 111.449219 169.226562 111.539062 169.257812 111.609375 C 169.382812 111.882812 169.515625 112.152344 169.644531 112.421875 C 169.675781 112.484375 169.714844 112.546875 169.746094 112.605469 C 169.886719 112.875 170.023438 113.144531 170.167969 113.410156 C 170.175781 113.429688 170.261719 113.4375 170.269531 113.421875 C 170.324219 113.339844 170.363281 113.25 170.414062 113.152344 Z M 174.296875 119.8125 L 174.335938 119.804688 C 174.347656 119.621094 174.367188 119.4375 174.371094 119.253906 C 174.378906 118.964844 174.371094 118.679688 174.386719 118.390625 C 174.40625 117.992188 174.441406 117.59375 174.460938 117.191406 C 174.464844 117.136719 174.425781 117.082031 174.410156 117.03125 L 173.75 117.230469 C 173.695312 117.234375 173.652344 117.277344 173.597656 117.296875 C 173.378906 117.390625 173.160156 117.476562 172.941406 117.5625 C 172.84375 117.597656 172.832031 117.660156 172.878906 117.734375 C 172.960938 117.855469 173.058594 117.972656 173.144531 118.09375 C 173.21875 118.203125 173.289062 118.316406 173.363281 118.429688 C 173.542969 118.707031 173.722656 118.980469 173.90625 119.253906 C 174.035156 119.445312 174.167969 119.625 174.296875 119.8125 Z M 176.324219 114.585938 C 176.296875 114.546875 176.28125 114.5 176.25 114.476562 C 176.042969 114.328125 175.835938 114.183594 175.628906 114.039062 C 175.597656 114.015625 175.527344 113.992188 175.511719 114.007812 C 175.484375 114.039062 175.460938 114.097656 175.46875 114.136719 C 175.507812 114.324219 175.402344 114.507812 175.460938 114.707031 C 175.507812 114.875 175.472656 115.070312 175.472656 115.304688 C 175.722656 115.167969 175.9375 115.058594 176.144531 114.9375 C 176.21875 114.894531 176.277344 114.8125 176.359375 114.789062 C 176.511719 114.75 176.527344 114.734375 176.4375 114.597656 C 176.414062 114.566406 176.394531 114.535156 176.371094 114.492188 C 176.347656 114.53125 176.335938 114.558594 176.324219 114.585938 Z M 176.324219 114.585938 " fill-opacity="1" fill-rule="nonzero"/></g><g clip-path="url(#4bb8929931)"><g clip-path="url(#600f9c11c9)"><path fill="#fde9c2" d="M 207.726562 119.675781 L 219.140625 119.675781 L 219.140625 131.089844 L 207.726562 131.089844 Z M 207.726562 119.675781 " fill-opacity="1" fill-rule="nonzero"/></g></g><g clip-path="url(#9832473a1b)"><g clip-path="url(#63e0c14870)"><path fill="#ffc24a" d="M 207.726562 119.675781 L 219.140625 119.675781 L 219.140625 131.089844 L 207.726562 131.089844 Z M 207.726562 119.675781 " fill-opacity="1" fill-rule="nonzero"/></g></g></svg>