<svg xmlns="http://www.w3.org/2000/svg" xmlns:xlink="http://www.w3.org/1999/xlink" width="500" zoomAndPan="magnify" viewBox="0 0 375 374.999991" height="500" preserveAspectRatio="xMidYMid meet" version="1.0"><defs><g/><clipPath id="f4eda8f2bc"><path d="M 229.105469 127.316406 L 255.160156 127.316406 L 255.160156 153.371094 L 229.105469 153.371094 Z M 229.105469 127.316406 " clip-rule="nonzero"/></clipPath><clipPath id="9db6e5ac0e"><path d="M 242.132812 127.316406 C 249.328125 127.316406 255.160156 133.148438 255.160156 140.34375 C 255.160156 147.539062 249.328125 153.371094 242.132812 153.371094 C 234.9375 153.371094 229.105469 147.539062 229.105469 140.34375 C 229.105469 133.148438 234.9375 127.316406 242.132812 127.316406 L 242.132812 131.484375 C 237.238281 131.484375 233.273438 135.449219 233.273438 140.34375 C 233.273438 145.234375 237.238281 149.203125 242.132812 149.203125 C 247.023438 149.203125 250.992188 145.234375 250.992188 140.34375 C 250.992188 135.449219 247.023438 131.484375 242.132812 131.484375 Z M 242.132812 127.316406 " clip-rule="nonzero"/></clipPath><clipPath id="d660285abd"><path d="M 231.34375 127.316406 L 255.769531 127.316406 L 255.769531 154 L 231.34375 154 Z M 231.34375 127.316406 " clip-rule="nonzero"/></clipPath><clipPath id="0b46e7e243"><path d="M 244.613281 127.554688 C 250.242188 128.644531 254.496094 133.289062 255.089844 138.996094 C 255.683594 144.699219 252.476562 150.117188 247.191406 152.347656 C 241.910156 154.574219 235.789062 153.085938 232.121094 148.679688 C 231.382812 147.792969 231.503906 146.480469 232.386719 145.742188 C 233.273438 145.007812 234.585938 145.125 235.324219 146.011719 C 237.820312 149.007812 241.980469 150.019531 245.574219 148.503906 C 249.167969 146.992188 251.347656 143.304688 250.941406 139.425781 C 250.539062 135.546875 247.648438 132.390625 243.820312 131.644531 C 243.089844 131.503906 242.488281 130.984375 242.246094 130.277344 C 242.003906 129.574219 242.152344 128.796875 242.640625 128.234375 C 243.128906 127.671875 243.882812 127.410156 244.613281 127.554688 Z M 244.613281 127.554688 " clip-rule="nonzero"/></clipPath><clipPath id="aeacb351f9"><path d="M 169.21875 96.59375 L 194.71875 96.59375 L 194.71875 131.84375 L 169.21875 131.84375 Z M 169.21875 96.59375 " clip-rule="nonzero"/></clipPath><clipPath id="683f61b406"><path d="M 261.785156 127.316406 L 287.839844 127.316406 L 287.839844 153.371094 L 261.785156 153.371094 Z M 261.785156 127.316406 " clip-rule="nonzero"/></clipPath><clipPath id="1833931bb0"><path d="M 274.8125 127.316406 C 282.007812 127.316406 287.839844 133.148438 287.839844 140.34375 C 287.839844 147.539062 282.007812 153.371094 274.8125 153.371094 C 267.617188 153.371094 261.785156 147.539062 261.785156 140.34375 C 261.785156 133.148438 267.617188 127.316406 274.8125 127.316406 L 274.8125 131.484375 C 269.921875 131.484375 265.953125 135.449219 265.953125 140.34375 C 265.953125 145.234375 269.921875 149.203125 274.8125 149.203125 C 279.707031 149.203125 283.671875 145.234375 283.671875 140.34375 C 283.671875 135.449219 279.707031 131.484375 274.8125 131.484375 Z M 274.8125 127.316406 " clip-rule="nonzero"/></clipPath><clipPath id="9a299e62c0"><path d="M 264.023438 127.316406 L 288 127.316406 L 288 154 L 264.023438 154 Z M 264.023438 127.316406 " clip-rule="nonzero"/></clipPath><clipPath id="a2f66339cd"><path d="M 277.292969 127.554688 C 282.921875 128.644531 287.175781 133.289062 287.769531 138.996094 C 288.363281 144.699219 285.15625 150.117188 279.875 152.347656 C 274.589844 154.574219 268.46875 153.085938 264.800781 148.679688 C 264.066406 147.792969 264.183594 146.480469 265.070312 145.742188 C 265.953125 145.007812 267.269531 145.125 268.003906 146.011719 C 270.5 149.007812 274.660156 150.019531 278.253906 148.503906 C 281.847656 146.992188 284.027344 143.304688 283.625 139.425781 C 283.21875 135.546875 280.328125 132.390625 276.5 131.644531 C 275.769531 131.503906 275.167969 130.984375 274.925781 130.277344 C 274.683594 129.574219 274.835938 128.796875 275.324219 128.234375 C 275.8125 127.671875 276.5625 127.410156 277.292969 127.554688 Z M 277.292969 127.554688 " clip-rule="nonzero"/></clipPath></defs><g fill="#ffbd59" fill-opacity="1"><g transform="translate(55.268599, 155.770629)"><g><path d="M 3.894531 -34.273438 C 3.839844 -33.382812 3.894531 -31.324219 3.949219 -28.597656 C 4.007812 -25.871094 4.0625 -22.421875 4.230469 -19.027344 C 4.453125 -15.636719 4.5625 -12.242188 4.730469 -9.570312 C 4.894531 -6.84375 5.007812 -4.785156 5.175781 -4.0625 C 5.398438 -2.558594 6.511719 -1.78125 7.734375 -1.78125 C 8.847656 -1.78125 10.125 -2.613281 10.40625 -4.171875 C 10.347656 -4.5625 10.183594 -7.289062 10.125 -10.015625 C 9.902344 -12.6875 9.902344 -15.246094 9.902344 -15.46875 C 11.628906 -15.414062 14.132812 -15.46875 16.46875 -15.523438 C 18.863281 -15.578125 21.144531 -15.746094 22.589844 -15.800781 C 24.148438 -15.859375 25.207031 -17.027344 25.207031 -18.304688 C 25.261719 -19.417969 24.257812 -20.699219 22.8125 -20.699219 C 21.421875 -20.753906 19.25 -20.867188 16.914062 -20.867188 C 14.578125 -20.867188 11.960938 -20.921875 9.792969 -20.921875 L 9.792969 -22.367188 C 9.738281 -23.3125 9.738281 -24.371094 9.738281 -25.539062 C 9.679688 -26.652344 9.679688 -27.710938 9.679688 -28.710938 L 9.679688 -30.492188 C 9.679688 -32.050781 9.738281 -33.050781 10.015625 -33.550781 C 10.347656 -33.996094 10.90625 -34.164062 12.296875 -34.164062 C 13.855469 -34.164062 15.46875 -34.050781 17.082031 -34.050781 C 18.640625 -33.996094 20.363281 -33.941406 22.144531 -33.941406 C 23.757812 -33.941406 25.039062 -35.054688 24.984375 -36.332031 C 24.984375 -37.667969 23.648438 -39.058594 21.8125 -39.058594 C 20.140625 -39.058594 17.804688 -39.171875 15.414062 -39.171875 C 12.851562 -39.226562 10.347656 -39.28125 8.402344 -39.28125 C 6.066406 -39.28125 3.671875 -37.78125 3.894531 -34.273438 Z M 3.894531 -34.273438 "/></g></g></g><g fill="#ffbd59" fill-opacity="1"><g transform="translate(87.922545, 155.770629)"><g><path d="M 7.566406 -16.359375 C 7.34375 -17.695312 7.011719 -20.199219 7.902344 -21.8125 C 8.570312 -23.371094 10.40625 -24.035156 12.296875 -24.203125 C 15.023438 -24.371094 17.027344 -23.871094 18.472656 -22.589844 C 19.917969 -21.308594 20.363281 -19.753906 19.640625 -17.859375 C 19.195312 -16.914062 17.636719 -16.359375 15.46875 -16.136719 C 13.1875 -15.914062 10.40625 -15.96875 7.566406 -16.359375 Z M 23.925781 -13.855469 C 25.261719 -15.578125 25.59375 -20.363281 23.703125 -23.871094 C 22.035156 -26.984375 18.027344 -29.265625 12.183594 -29.042969 C 7.398438 -28.988281 4.394531 -27.207031 2.949219 -23.871094 C 2.226562 -22.089844 1.949219 -19.917969 1.949219 -17.859375 C 1.949219 -15.859375 2.171875 -13.910156 2.558594 -12.574219 C 2.894531 -10.851562 3.726562 -8.066406 4.839844 -6.34375 C 6.007812 -4.617188 7.34375 -3.449219 9.238281 -2.78125 C 10.792969 -2.171875 13.296875 -1.949219 15.636719 -2.003906 C 18.140625 -2.003906 20.476562 -2.335938 22.035156 -3.003906 C 22.757812 -3.503906 22.867188 -4.730469 22.480469 -5.785156 C 22.035156 -6.675781 21.085938 -7.511719 19.863281 -7.234375 C 18.695312 -7.011719 17.136719 -6.957031 15.523438 -7.011719 C 13.855469 -7.011719 12.242188 -7.289062 11.128906 -7.789062 C 9.570312 -8.457031 8.847656 -9.847656 8.511719 -11.574219 C 12.464844 -10.738281 16.082031 -10.792969 18.804688 -11.296875 C 21.476562 -11.796875 23.425781 -12.742188 23.925781 -13.855469 Z M 23.925781 -13.855469 "/></g></g></g><g fill="#ffbd59" fill-opacity="1"><g transform="translate(120.131491, 155.770629)"><g><path d="M 18.25 -28.878906 C 15.914062 -29.546875 11.296875 -29.710938 7.234375 -29.042969 C 5.117188 -28.765625 3.839844 -27.597656 3.117188 -26.039062 C 2.335938 -24.539062 2.058594 -22.867188 2.003906 -21.367188 C 1.78125 -19.808594 2.226562 -18.082031 3.171875 -16.523438 C 3.894531 -14.96875 5.175781 -13.742188 6.621094 -13.296875 C 8.457031 -12.628906 10.183594 -12.464844 11.738281 -12.296875 C 13.296875 -12.074219 14.464844 -11.960938 15.132812 -11.574219 C 15.914062 -11.128906 16.304688 -10.238281 16.246094 -9.347656 C 16.246094 -8.457031 15.746094 -7.679688 15.023438 -7.457031 C 14.242188 -7.066406 12.796875 -7.011719 11.183594 -7.011719 C 9.738281 -7.066406 8.066406 -7.289062 7.066406 -7.566406 C 5.507812 -7.566406 4.617188 -6.566406 4.5625 -5.285156 C 4.394531 -4.117188 5.117188 -2.78125 6.734375 -2.558594 C 10.792969 -2.003906 16.804688 -2.058594 19.085938 -3.503906 C 20.921875 -4.839844 21.699219 -7.457031 21.699219 -9.625 C 21.699219 -11.796875 20.976562 -14.078125 18.695312 -15.800781 C 17.25 -16.414062 15.636719 -16.582031 14.023438 -16.804688 C 12.464844 -17.027344 10.960938 -17.136719 9.570312 -17.636719 C 8.402344 -18.027344 7.621094 -19.363281 7.398438 -20.753906 C 7.121094 -22.089844 7.457031 -23.425781 8.679688 -23.871094 C 9.625 -24.148438 11.40625 -24.316406 13.074219 -24.316406 C 14.632812 -24.316406 16.191406 -24.148438 17.027344 -24.09375 C 19.140625 -23.8125 20.253906 -24.816406 20.476562 -26.09375 C 20.644531 -27.207031 19.863281 -28.65625 18.25 -28.878906 Z M 18.25 -28.878906 "/></g></g></g><g fill="#ffbd59" fill-opacity="1"><g transform="translate(149.114191, 155.770629)"><g><path d="M 17.859375 -28.210938 C 16.523438 -28.152344 15.355469 -28.042969 14.242188 -28.042969 C 13.6875 -27.988281 13.1875 -27.988281 12.6875 -27.988281 L 11.460938 -27.988281 L 11.351562 -33.105469 C 11.296875 -34.609375 9.847656 -35.21875 8.457031 -35.164062 C 7.121094 -35 5.84375 -34.273438 5.898438 -32.773438 L 6.066406 -28.097656 L 4.230469 -28.097656 C 3.617188 -28.097656 3.003906 -28.152344 2.335938 -28.210938 C 0.777344 -28.210938 0.667969 -26.984375 0.667969 -25.816406 C 0.667969 -24.925781 0.777344 -23.425781 2.113281 -23.425781 C 3.28125 -23.203125 4.5625 -23.203125 5.898438 -23.203125 C 5.898438 -22.480469 6.007812 -20.476562 6.066406 -18.527344 C 6.230469 -16.582031 6.289062 -14.632812 6.289062 -14.1875 C 6.066406 -12.128906 6.621094 -8.957031 7.566406 -6.566406 C 8.066406 -4.839844 10.347656 -3.171875 13.964844 -2.449219 C 15.355469 -2.058594 16.746094 -1.78125 18.140625 -1.78125 C 19.25 -1.558594 20.140625 -2.449219 20.476562 -3.5625 C 20.867188 -4.675781 20.53125 -5.898438 19.085938 -6.34375 L 14.800781 -7.34375 C 13.632812 -7.566406 12.351562 -8.457031 12.074219 -9.960938 C 12.074219 -10.238281 12.019531 -10.628906 12.019531 -11.128906 C 11.960938 -11.40625 11.960938 -11.628906 11.960938 -11.90625 L 11.960938 -12.851562 L 11.628906 -22.980469 C 13.296875 -22.8125 15.96875 -23.089844 17.972656 -23.3125 C 19.308594 -23.371094 19.808594 -24.59375 19.753906 -25.871094 C 19.585938 -26.984375 19.027344 -28.210938 17.859375 -28.210938 Z M 17.859375 -28.210938 "/></g></g></g><g fill="#ffbd59" fill-opacity="1"><g transform="translate(175.482549, 155.770629)"><g><path d="M 9.679688 -26.375 C 9.070312 -27.933594 7.566406 -28.265625 6.175781 -27.988281 C 4.839844 -27.597656 3.726562 -26.761719 4.007812 -25.707031 C 4.0625 -22.980469 4.230469 -18.917969 4.453125 -14.855469 C 4.617188 -10.851562 4.839844 -6.789062 5.0625 -4.285156 C 5.0625 -2.671875 6.34375 -1.835938 7.734375 -2.003906 C 9.070312 -2.058594 10.515625 -3.003906 10.738281 -4.617188 C 10.738281 -7.234375 10.570312 -11.238281 10.347656 -15.414062 Z M 6.066406 -40.5625 C 4.007812 -40.5625 2.335938 -38.503906 2.335938 -36.332031 C 2.390625 -34.273438 4.117188 -32.550781 6.175781 -32.550781 C 8.234375 -32.550781 10.238281 -34.273438 10.183594 -36.332031 C 10.183594 -37.390625 9.679688 -38.335938 8.847656 -39.226562 C 7.957031 -40.117188 7.011719 -40.5625 6.066406 -40.5625 Z M 6.066406 -40.5625 "/></g></g></g><g fill="#ffbd59" fill-opacity="1"><g transform="translate(193.490662, 155.771332)"><g><path d="M 21.085938 -32.882812 C 22.035156 -31.9375 22.144531 -29.210938 21.589844 -26.761719 C 21.144531 -24.257812 20.085938 -21.8125 18.695312 -21.367188 L 8.792969 -20.699219 C 8.792969 -21.53125 8.570312 -24.203125 8.511719 -26.929688 C 8.347656 -29.65625 8.347656 -32.550781 8.347656 -33.71875 C 9.960938 -33.941406 12.6875 -34.164062 15.246094 -33.996094 C 17.75 -33.941406 19.976562 -33.550781 21.085938 -32.882812 Z M 20.253906 -16.582031 C 23.035156 -15.914062 24.425781 -13.910156 24.480469 -11.960938 C 24.59375 -9.960938 23.371094 -7.957031 21.085938 -7.121094 C 18.917969 -6.511719 11.40625 -6.898438 9.457031 -6.898438 C 9.015625 -9.792969 8.902344 -12.183594 8.902344 -16.136719 C 10.015625 -16.523438 12.183594 -16.746094 14.242188 -16.804688 C 16.414062 -16.859375 18.585938 -16.804688 20.253906 -16.582031 Z M 24.371094 -19.53125 C 25.316406 -20.644531 26.261719 -22.8125 26.875 -25.039062 C 27.375 -27.320312 27.652344 -29.710938 26.984375 -31.4375 C 26.152344 -34.777344 23.871094 -37.722656 20.253906 -38.390625 C 19.25 -38.558594 16.582031 -38.726562 13.964844 -38.78125 C 11.351562 -38.835938 8.792969 -38.78125 7.679688 -38.503906 C 6.957031 -38.449219 5.953125 -38.335938 5.0625 -37.722656 C 4.117188 -37.113281 3.503906 -36.109375 3.5625 -34.386719 C 3.503906 -28.65625 3.5625 -23.371094 3.785156 -18.527344 C 3.949219 -13.6875 4.117188 -9.738281 4.394531 -6.675781 C 4.453125 -4.617188 5.5625 -2.390625 8.511719 -2.335938 C 12.019531 -2.058594 19.25 -1.726562 22.8125 -2.78125 C 26.152344 -3.671875 28.097656 -6.675781 28.765625 -9.070312 C 29.265625 -10.238281 29.378906 -12.128906 29.15625 -13.632812 C 28.710938 -15.578125 27.875 -16.804688 26.929688 -17.695312 C 25.929688 -18.640625 24.925781 -19.140625 24.371094 -19.53125 Z M 24.371094 -19.53125 "/></g></g></g><g fill="#ffbd59" fill-opacity="1"><g transform="translate(230.438387, 155.771332)"><g/></g></g><g fill="#ffbd59" fill-opacity="1"><g transform="translate(246.348581, 155.771332)"><g/></g></g><g fill="#ffbd59" fill-opacity="1"><g transform="translate(262.258775, 155.771332)"><g/></g></g><g fill="#ffbd59" fill-opacity="1"><g transform="translate(278.16897, 155.771332)"><g/></g></g><g fill="#ffbd59" fill-opacity="1"><g transform="translate(294.081858, 155.771332)"><g><path d="M 12.851562 -16.46875 C 13.742188 -17.191406 15.746094 -18.863281 18.027344 -20.644531 C 20.363281 -22.480469 22.757812 -24.425781 24.371094 -25.816406 C 25.316406 -26.761719 24.761719 -28.765625 23.8125 -29.601562 C 22.925781 -30.546875 21.144531 -31.046875 20.253906 -29.710938 L 14.800781 -25.207031 C 12.628906 -23.480469 10.628906 -21.867188 9.679688 -21.03125 C 9.625 -21.921875 9.625 -22.980469 9.625 -24.148438 L 9.625 -27.765625 C 9.625 -30.15625 9.679688 -32.660156 9.679688 -34.496094 C 9.679688 -36.054688 8.234375 -36.945312 6.789062 -37 C 5.398438 -37.167969 3.894531 -36.5 3.894531 -34.941406 C 3.671875 -28.710938 3.726562 -23.871094 3.894531 -19.195312 C 4.0625 -14.464844 4.394531 -9.792969 4.617188 -4.171875 C 4.617188 -2.449219 5.953125 -1.558594 7.511719 -1.390625 C 8.902344 -1.222656 10.40625 -1.835938 10.40625 -3.339844 L 9.902344 -11.90625 C 13.578125 -9.070312 17.75 -5.621094 20.085938 -2.78125 C 21.421875 -1.667969 22.757812 -2.113281 23.703125 -3.003906 C 24.648438 -3.839844 25.039062 -5.175781 24.480469 -6.007812 C 23.589844 -6.957031 21.699219 -8.957031 19.53125 -11.015625 C 17.25 -13.074219 14.800781 -15.132812 12.851562 -16.46875 Z M 12.851562 -16.46875 "/></g></g></g><g clip-path="url(#f4eda8f2bc)"><g clip-path="url(#9db6e5ac0e)"><path fill="#ffe6b2" d="M 229.105469 127.316406 L 255.160156 127.316406 L 255.160156 153.371094 L 229.105469 153.371094 Z M 229.105469 127.316406 " fill-opacity="1" fill-rule="nonzero"/></g></g><g clip-path="url(#d660285abd)"><g clip-path="url(#0b46e7e243)"><path fill="#ffc24a" d="M 229.105469 127.316406 L 255.160156 127.316406 L 255.160156 153.371094 L 229.105469 153.371094 Z M 229.105469 127.316406 " fill-opacity="1" fill-rule="nonzero"/></g></g><g clip-path="url(#aeacb351f9)"><path fill="#ffde59" d="M 186.242188 96.597656 C 186.230469 96.667969 186.214844 96.734375 186.195312 96.84375 C 186.40625 96.683594 186.519531 96.597656 186.765625 96.882812 C 187.277344 97.46875 187.402344 97.425781 187.449219 97.894531 C 187.492188 98.300781 187.84375 98.667969 187.613281 99.121094 C 187.570312 99.199219 187.722656 99.355469 187.726562 99.472656 C 187.734375 99.984375 187.707031 100.492188 187.71875 101.003906 C 187.726562 101.246094 187.824219 101.488281 187.839844 101.738281 C 187.867188 102.136719 187.765625 102.527344 187.824219 102.9375 C 187.902344 103.460938 187.898438 104.003906 187.902344 104.542969 C 187.910156 105.445312 187.898438 106.34375 187.898438 107.246094 C 187.898438 107.539062 187.988281 107.847656 187.917969 108.121094 C 187.832031 108.460938 187.902344 108.742188 187.972656 109.0625 C 188.050781 109.460938 188.046875 109.863281 187.964844 110.253906 C 187.875 110.695312 188.050781 110.882812 188.402344 111.054688 C 188.890625 111.292969 189.363281 111.566406 189.824219 111.851562 C 190.238281 112.109375 190.636719 112.402344 191.035156 112.6875 C 191.3125 112.886719 191.550781 113.152344 191.847656 113.308594 C 192.304688 113.554688 192.804688 113.722656 193.277344 113.941406 C 193.417969 114.007812 193.535156 114.125 193.738281 114.277344 C 193.96875 114.207031 194.214844 114.417969 194.398438 114.671875 C 194.703125 115.105469 194.65625 115.941406 194.335938 116.289062 C 193.867188 116.792969 193.199219 116.949219 192.6875 116.695312 C 192.464844 116.824219 192.265625 116.957031 192.046875 117.050781 C 191.34375 117.355469 190.742188 117.804688 190.136719 118.269531 C 189.746094 118.574219 189.226562 118.714844 188.773438 118.945312 C 188.507812 119.082031 188.246094 119.246094 187.988281 119.410156 C 187.9375 119.445312 187.910156 119.507812 187.914062 119.566406 C 187.980469 119.960938 187.757812 120.359375 187.9375 120.746094 C 187.953125 120.785156 187.953125 120.820312 187.9375 120.855469 C 187.730469 121.46875 188.003906 122.085938 187.910156 122.710938 C 187.808594 123.390625 187.859375 124.097656 187.824219 124.789062 C 187.800781 125.296875 187.789062 125.796875 187.796875 126.304688 C 187.800781 126.902344 187.710938 127.503906 187.6875 128.101562 C 187.664062 128.648438 187.734375 129.203125 187.664062 129.742188 C 187.605469 130.214844 187.722656 130.738281 187.382812 131.15625 C 187.222656 131.363281 187.089844 131.621094 186.878906 131.738281 C 186.683594 131.84375 186.398438 131.8125 186.152344 131.785156 C 185.96875 131.769531 185.691406 131.804688 185.710938 131.472656 C 185.671875 131.46875 185.613281 131.484375 185.585938 131.464844 C 185.449219 131.359375 185.253906 131.273438 185.191406 131.128906 C 184.894531 130.4375 184.464844 129.882812 183.894531 129.367188 C 183.363281 128.886719 183.011719 128.199219 182.59375 127.597656 C 181.914062 126.609375 181.234375 125.613281 180.566406 124.613281 C 180.359375 124.304688 180.195312 123.96875 179.988281 123.664062 C 179.882812 123.507812 179.722656 123.386719 179.539062 123.203125 L 176.988281 124.46875 C 177.003906 124.425781 176.996094 124.515625 176.945312 124.554688 C 176.765625 124.683594 176.574219 124.796875 176.390625 124.921875 C 175.789062 125.335938 175.191406 125.769531 174.585938 126.175781 C 174.230469 126.414062 173.84375 126.601562 173.488281 126.84375 C 173.078125 127.125 172.707031 127.464844 172.285156 127.734375 C 171.929688 127.96875 171.550781 128.210938 171.148438 128.292969 C 170.664062 128.394531 170.132812 128.457031 169.671875 128.105469 C 169.359375 127.867188 169.230469 127.34375 169.40625 127.003906 C 169.535156 126.769531 169.582031 126.503906 169.636719 126.234375 C 169.699219 125.886719 169.886719 125.5625 170.027344 125.226562 C 170.339844 124.472656 170.667969 123.722656 170.96875 122.960938 C 171.132812 122.550781 171.253906 122.121094 171.417969 121.710938 C 171.789062 120.753906 172.113281 119.78125 172.683594 118.914062 C 172.957031 118.5 173.089844 118.011719 173.316406 117.5625 C 173.605469 117.003906 173.980469 116.515625 174.324219 116.003906 C 174.398438 115.898438 174.542969 115.824219 174.582031 115.714844 C 174.636719 115.542969 174.707031 115.304688 174.632812 115.167969 C 174.378906 114.679688 174.046875 114.238281 173.769531 113.761719 C 173.382812 113.097656 173.015625 112.421875 172.65625 111.738281 C 172.574219 111.582031 172.578125 111.382812 172.515625 111.214844 C 172.476562 111.125 172.355469 111.070312 172.320312 110.980469 C 172.042969 110.328125 171.6875 109.71875 171.503906 109.015625 C 171.285156 108.199219 170.835938 107.445312 170.558594 106.640625 C 170.40625 106.207031 170.398438 105.726562 170.339844 105.261719 C 170.296875 104.882812 170.296875 104.507812 170.484375 104.152344 C 170.832031 103.488281 171.515625 103.148438 172.257812 103.367188 C 172.738281 103.515625 173.195312 103.75 173.660156 103.945312 C 174.417969 104.265625 175.175781 104.582031 175.929688 104.910156 C 176.046875 104.960938 176.128906 105.082031 176.191406 105.140625 C 176.453125 105.234375 176.703125 105.289062 176.917969 105.410156 C 177.753906 105.871094 178.578125 106.347656 179.402344 106.824219 C 179.441406 106.847656 179.449219 106.929688 179.488281 107.019531 C 179.726562 106.589844 180.101562 106.324219 180.324219 105.910156 C 180.542969 105.484375 180.882812 105.128906 181.144531 104.722656 C 181.410156 104.320312 181.675781 103.90625 181.902344 103.480469 C 182.136719 103.03125 182.324219 102.558594 182.542969 102.101562 C 182.75 101.679688 182.964844 101.273438 183.179688 100.847656 L 183.382812 100.941406 C 183.398438 100.910156 183.414062 100.882812 183.414062 100.863281 C 183.402344 100.734375 183.328125 100.582031 183.371094 100.484375 C 183.652344 99.855469 183.902344 99.199219 184.277344 98.628906 C 184.679688 98.011719 185.203125 97.464844 185.695312 96.90625 C 185.820312 96.769531 186.015625 96.695312 186.171875 96.59375 Z M 185.914062 113.011719 C 185.929688 113.023438 185.824219 112.992188 185.792969 112.925781 C 185.640625 112.582031 185.347656 112.460938 185.007812 112.351562 C 184.601562 112.214844 184.207031 112.007812 183.820312 111.808594 C 183.605469 111.695312 183.417969 111.527344 183.210938 111.402344 C 182.878906 111.199219 182.539062 111 182.207031 110.800781 C 182.140625 110.765625 182.078125 110.707031 182.011719 110.691406 C 181.546875 110.597656 181.074219 110.519531 180.609375 110.417969 C 180.519531 110.398438 180.441406 110.296875 180.375 110.242188 L 179.832031 110.289062 C 179.136719 111.8125 178.484375 113.386719 177.503906 114.949219 C 177.8125 115.402344 178.164062 115.929688 178.519531 116.457031 C 179 117.167969 179.503906 117.871094 179.960938 118.597656 C 180.257812 119.066406 180.484375 119.582031 180.757812 120.066406 C 180.808594 120.152344 180.988281 120.269531 181.019531 120.25 C 181.476562 119.941406 182.058594 119.972656 182.511719 119.644531 C 183.257812 119.113281 184.234375 119.125 185.027344 118.679688 C 185.316406 118.515625 185.777344 118.503906 185.769531 118.0625 C 185.761719 117.492188 185.835938 116.929688 185.792969 116.355469 C 185.734375 115.511719 185.78125 114.664062 185.789062 113.824219 C 185.789062 113.707031 185.832031 113.589844 185.847656 113.464844 C 185.863281 113.34375 185.878906 113.214844 185.914062 113.011719 Z M 185.835938 99.980469 L 185.761719 99.953125 C 185.691406 100.078125 185.613281 100.199219 185.554688 100.328125 C 185.316406 100.832031 185.089844 101.332031 184.851562 101.835938 C 184.6875 102.1875 184.511719 102.527344 184.351562 102.878906 C 184.261719 103.074219 184.214844 103.292969 184.117188 103.488281 C 183.894531 103.941406 183.660156 104.390625 183.40625 104.820312 C 183.179688 105.195312 182.925781 105.554688 182.675781 105.914062 C 182.519531 106.140625 182.351562 106.355469 182.21875 106.542969 C 182.164062 106.527344 182.070312 106.46875 182.011719 106.492188 C 181.960938 106.511719 181.921875 106.625 181.921875 106.699219 C 181.921875 106.800781 182.007812 106.929688 181.96875 107 C 181.820312 107.285156 181.632812 107.554688 181.441406 107.863281 C 183.074219 108.046875 184.332031 109.0625 185.839844 109.734375 L 185.839844 99.980469 Z M 172.308594 124.796875 C 172.390625 124.789062 172.476562 124.804688 172.535156 124.773438 C 173.03125 124.476562 173.515625 124.15625 174.019531 123.867188 C 174.816406 123.40625 175.625 122.957031 176.433594 122.519531 C 176.980469 122.222656 177.523438 121.917969 178.097656 121.679688 C 178.421875 121.546875 178.496094 121.402344 178.335938 121.109375 C 178.046875 120.570312 177.765625 120.027344 177.464844 119.5 C 177.277344 119.160156 177.070312 118.835938 176.839844 118.523438 C 176.554688 118.140625 176.234375 117.78125 175.886719 117.355469 C 175.835938 117.535156 175.828125 117.625 175.792969 117.695312 C 175.488281 118.242188 175.171875 118.78125 174.871094 119.328125 C 174.800781 119.453125 174.777344 119.601562 174.714844 119.730469 C 174.515625 120.140625 174.308594 120.542969 174.101562 120.945312 C 173.996094 121.15625 173.796875 121.355469 173.789062 121.5625 C 173.777344 122.011719 173.554688 122.257812 173.171875 122.429688 C 173.222656 122.539062 173.269531 122.640625 173.332031 122.765625 L 173.066406 122.820312 C 173.195312 123.152344 173.035156 123.519531 172.8125 123.566406 C 172.640625 124 172.484375 124.375 172.308594 124.796875 Z M 176.710938 112.121094 C 176.710938 111.972656 176.667969 111.824219 176.71875 111.71875 C 176.9375 111.246094 177.1875 110.78125 177.421875 110.316406 C 177.59375 109.976562 177.773438 109.640625 177.933594 109.292969 C 177.957031 109.238281 177.90625 109.125 177.855469 109.066406 C 177.695312 108.878906 177.5625 108.675781 177.285156 108.613281 C 177.101562 108.574219 176.941406 108.425781 176.765625 108.328125 C 176.433594 108.140625 176.097656 107.945312 175.753906 107.761719 C 175.265625 107.503906 174.78125 107.246094 174.28125 107.011719 C 173.9375 106.847656 173.578125 106.726562 173.222656 106.585938 L 173.148438 106.707031 C 173.210938 106.847656 173.269531 107 173.335938 107.136719 C 173.5 107.472656 173.6875 107.796875 173.835938 108.136719 C 173.90625 108.296875 173.867188 108.5 173.941406 108.65625 C 174.222656 109.269531 174.523438 109.871094 174.816406 110.476562 C 174.886719 110.617188 174.972656 110.753906 175.046875 110.890625 C 175.359375 111.492188 175.671875 112.09375 175.996094 112.6875 C 176.019531 112.730469 176.210938 112.746094 176.234375 112.71875 C 176.351562 112.53125 176.445312 112.328125 176.554688 112.109375 Z M 185.363281 127.015625 L 185.449219 126.996094 C 185.476562 126.589844 185.515625 126.179688 185.53125 125.769531 C 185.550781 125.125 185.535156 124.480469 185.566406 123.839844 C 185.609375 122.941406 185.6875 122.046875 185.738281 121.152344 C 185.746094 121.027344 185.65625 120.90625 185.613281 120.796875 L 184.117188 121.238281 C 184 121.25 183.898438 121.34375 183.777344 121.390625 C 183.28125 121.597656 182.785156 121.792969 182.285156 121.980469 C 182.0625 122.0625 182.042969 122.203125 182.148438 122.363281 C 182.332031 122.640625 182.554688 122.898438 182.746094 123.171875 C 182.917969 123.414062 183.078125 123.671875 183.246094 123.925781 C 183.652344 124.542969 184.0625 125.15625 184.472656 125.769531 C 184.765625 126.191406 185.070312 126.601562 185.363281 127.015625 Z M 189.953125 115.320312 C 189.894531 115.234375 189.859375 115.128906 189.785156 115.078125 C 189.320312 114.742188 188.851562 114.417969 188.378906 114.09375 C 188.304688 114.042969 188.152344 113.992188 188.117188 114.023438 C 188.054688 114.09375 188 114.222656 188.015625 114.3125 C 188.105469 114.738281 187.867188 115.140625 188 115.589844 C 188.109375 115.964844 188.023438 116.402344 188.023438 116.929688 C 188.589844 116.628906 189.078125 116.375 189.550781 116.109375 C 189.722656 116.011719 189.855469 115.824219 190.035156 115.777344 C 190.382812 115.683594 190.414062 115.652344 190.210938 115.351562 C 190.160156 115.28125 190.121094 115.207031 190.058594 115.113281 C 190.011719 115.199219 189.984375 115.257812 189.953125 115.320312 Z M 189.953125 115.320312 " fill-opacity="1" fill-rule="nonzero"/></g><g clip-path="url(#683f61b406)"><g clip-path="url(#1833931bb0)"><path fill="#fde9c2" d="M 261.785156 127.316406 L 287.839844 127.316406 L 287.839844 153.371094 L 261.785156 153.371094 Z M 261.785156 127.316406 " fill-opacity="1" fill-rule="nonzero"/></g></g><g clip-path="url(#9a299e62c0)"><g clip-path="url(#a2f66339cd)"><path fill="#ffc24a" d="M 261.785156 127.316406 L 287.839844 127.316406 L 287.839844 153.371094 L 261.785156 153.371094 Z M 261.785156 127.316406 " fill-opacity="1" fill-rule="nonzero"/></g></g></svg>